<svg version="1.1" id="Layer_1" xmlns="http://www.w3.org/2000/svg" xmlns:xlink="http://www.w3.org/1999/xlink" x="0px" y="0px"
	 width="100%" viewBox="0 0 500 500" enable-background="new 0 0 500 500" xml:space="preserve">
<path fill="#466B3B" opacity="1.000000" stroke="none" 
	d="
M501.000000,245.000000 
	C501.000000,330.666656 501.000000,415.833282 501.000000,500.999939 
	C334.333405,500.999969 167.666794,500.999969 1.000135,501.000000 
	C1.000090,334.333435 1.000090,167.666870 1.000045,1.000225 
	C167.666519,1.000150 334.333038,1.000150 500.999786,1.000075 
	C501.000000,82.166664 501.000000,163.333328 501.000000,245.000000 
M210.672913,465.208435 
	C210.062622,464.769836 209.452332,464.331207 208.758057,463.832214 
	C208.758057,468.099182 208.758057,472.023804 208.758057,475.948456 
	C209.008743,475.928040 209.259415,475.907623 209.510101,475.887238 
	C209.995178,473.310455 210.480240,470.733673 211.248978,468.756622 
	C213.739365,470.723450 216.229752,472.690308 219.639999,475.383606 
	C219.415924,470.616089 219.266769,467.442566 219.117615,464.269043 
	C218.604065,464.272522 218.090515,464.276001 217.576950,464.279510 
	C217.278580,466.338013 216.980194,468.396515 216.626175,470.838928 
	C214.473602,468.888367 212.787628,467.360626 210.672913,465.208435 
M317.114746,174.348267 
	C317.114746,170.085358 317.114746,165.822449 317.114746,161.552612 
	C297.040588,161.552612 277.647675,161.552612 258.268890,161.552612 
	C258.268890,191.156281 258.268890,220.408127 258.268890,249.737259 
	C277.951477,249.737259 297.357635,249.737259 316.748291,249.737259 
	C316.748291,244.755539 316.748291,240.050049 316.748291,234.873978 
	C301.961670,234.873978 287.557800,234.873978 273.287842,234.873978 
	C273.287842,227.327499 273.287842,220.266205 273.287842,212.816010 
	C285.576202,212.816010 297.500732,212.816010 309.520996,212.816010 
	C309.520996,207.836044 309.520996,203.265289 309.520996,198.059753 
	C297.195160,198.059753 285.157593,198.059753 273.178925,198.059753 
	C273.178925,190.482864 273.178925,183.549698 273.178925,176.136414 
	C286.217957,176.136414 299.004059,176.167526 311.789673,176.099808 
	C313.526886,176.090607 315.261475,175.586761 317.114746,174.348267 
M197.622742,140.914841 
	C216.295212,155.721481 244.711151,151.739990 256.308960,137.328186 
	C252.993149,133.898102 249.695389,130.486664 246.412811,127.090935 
	C231.344788,140.072388 213.532394,136.036591 204.651306,126.794975 
	C194.035629,115.748413 193.511078,95.621552 203.456268,83.599121 
	C213.402679,71.575211 229.531815,71.010216 246.290833,81.933266 
	C249.609161,78.489845 252.884079,75.091484 256.162811,71.689148 
	C242.508789,56.843479 216.777573,54.784466 199.240158,67.067459 
	C176.089981,83.281555 174.952652,122.740013 197.622742,140.914841 
M241.173691,207.458374 
	C241.173691,204.514679 241.173691,201.570999 241.173691,198.154724 
	C228.662216,198.154724 216.744370,198.154724 204.712112,198.154724 
	C204.712112,190.621643 204.712112,183.586777 204.712112,176.075607 
	C219.489822,176.075607 233.903656,176.075607 248.397079,176.075607 
	C248.397079,170.886108 248.397079,166.187378 248.397079,161.554688 
	C228.598038,161.554688 209.211899,161.554688 189.657776,161.554688 
	C189.657776,191.150604 189.657776,220.383423 189.657776,249.664597 
	C194.647720,249.664597 199.349274,249.664597 204.392670,249.664597 
	C204.392670,237.371765 204.392670,225.422821 204.392670,212.923996 
	C216.798981,212.923996 228.867722,212.923996 241.173599,212.923996 
	C241.173599,211.054077 241.173599,209.739227 241.173691,207.458374 
M307.259613,96.142815 
	C302.420807,83.658531 297.581970,71.174248 292.346497,57.666618 
	C280.346375,88.627510 268.728119,118.603149 256.943542,149.007935 
	C260.544250,149.007935 263.587708,148.644104 266.508026,149.088898 
	C271.520264,149.852325 274.351135,148.124985 275.203735,143.074875 
	C275.759186,139.785110 277.625275,138.617096 281.144043,138.761063 
	C288.956696,139.080688 296.796600,138.714874 304.612610,138.990387 
	C306.104340,139.042969 308.595062,140.556641 308.822540,141.742111 
	C310.115723,148.480469 314.242584,149.971207 320.290558,149.061523 
	C322.502441,148.728836 324.806366,149.007935 327.814545,149.007935 
	C320.899170,131.153214 314.253143,113.993980 307.259613,96.142815 
M246.720627,408.671509 
	C253.683929,422.463226 267.473389,430.001160 281.451477,427.656921 
	C295.965454,425.222870 307.060699,414.129761 309.148895,399.964844 
	C311.278748,385.517029 304.017273,371.701996 290.938477,365.319336 
	C278.761230,359.376648 264.666290,361.538879 254.301086,370.939697 
	C244.096573,380.194763 241.197418,393.692902 246.720627,408.671509 
M272.471863,321.498291 
	C272.471863,326.606140 272.471863,331.714020 272.471863,337.491333 
	C268.694214,337.491333 265.491241,337.491333 262.296143,337.491333 
	C262.296143,342.290405 262.296143,346.399811 262.296143,350.664734 
	C274.214966,350.664734 285.906921,350.664734 297.496826,350.664734 
	C297.496826,346.092896 297.496826,341.877716 297.496826,337.158661 
	C294.024475,337.158661 290.941132,337.158661 287.683960,337.158661 
	C287.683960,316.579346 287.683960,296.516846 287.683960,276.057465 
	C290.868530,276.057465 293.813721,276.057465 296.930389,276.057465 
	C296.930389,271.258148 296.930389,266.859009 296.930389,262.380676 
	C285.481964,262.380676 274.366241,262.380676 263.030823,262.380676 
	C263.030823,266.954773 263.030823,271.335632 263.030823,276.155914 
	C266.310944,276.155914 269.240814,276.155914 272.471924,276.155914 
	C272.471924,291.230377 272.471924,305.864746 272.471863,321.498291 
M211.050674,350.969238 
	C226.341446,350.969238 241.632217,350.969238 257.097900,350.969238 
	C257.097900,345.882660 257.097900,341.129120 257.097900,335.919006 
	C246.211029,335.919006 235.621948,335.919006 224.596222,335.919006 
	C224.596222,311.225952 224.596222,286.988861 224.596222,262.552979 
	C219.458191,262.552979 214.776520,262.552979 209.761230,262.552979 
	C209.761230,264.380524 209.761215,265.863617 209.761215,267.346680 
	C209.761200,293.486847 209.753555,319.627014 209.779327,345.767151 
	C209.780945,347.411194 210.043549,349.054932 211.050674,350.969238 
M220.741867,417.500183 
	C220.741867,404.092896 220.741867,390.685638 220.741867,376.968811 
	C227.199509,376.968811 232.989563,376.968811 238.867035,376.968811 
	C238.867035,372.244568 238.867035,367.844482 238.867035,363.622101 
	C221.475922,363.622101 204.429108,363.622101 187.546478,363.622101 
	C187.546478,368.295990 187.546478,372.532043 187.546478,377.223572 
	C193.854980,377.223572 199.764557,377.223572 206.140289,377.223572 
	C206.140289,402.397949 206.140289,427.101776 206.140289,451.689514 
	C211.207413,451.689514 215.784134,451.689514 220.741867,451.689514 
	C220.741867,440.414154 220.741867,429.457184 220.741867,417.500183 
M303.963623,437.212616 
	C285.066345,437.212616 266.169067,437.212616 247.241333,437.212616 
	C247.241333,442.444336 247.241333,447.031158 247.241333,451.778961 
	C266.706818,451.778961 285.920654,451.778961 305.979309,451.778961 
	C305.586243,446.816376 305.214691,442.125977 303.963623,437.212616 
M283.404999,32.196411 
	C282.637573,32.403141 281.208984,32.587353 281.201050,32.819942 
	C281.064362,36.833538 281.102692,40.853088 281.102692,44.871338 
	C281.439789,44.872780 281.776886,44.874222 282.113983,44.875664 
	C282.621948,43.507114 283.129913,42.138569 283.637878,40.770023 
	C284.099731,40.501465 284.561554,40.232910 285.023407,39.964355 
	C286.084808,41.820969 287.146240,43.677582 288.207672,45.534195 
	C288.481384,42.728935 287.450531,40.533054 288.043854,38.943340 
	C289.602600,34.766762 288.017151,33.005051 283.404999,32.196411 
M247.373749,463.163849 
	C244.505600,462.807709 242.984741,463.739594 243.214294,466.964020 
	C243.422638,469.890472 243.258362,472.843414 243.258362,475.625732 
	C246.554840,475.625732 249.172836,475.625732 252.654480,475.625732 
	C249.666901,474.190674 247.610031,473.202667 245.553162,472.214661 
	C247.253082,471.564148 248.959885,470.930145 250.639679,470.231232 
	C250.771149,470.176514 250.714096,469.668701 250.705444,469.752808 
	C248.900391,468.755951 247.244339,467.841370 245.588272,466.926819 
	C247.600815,466.035858 249.613358,465.144928 252.486862,463.872864 
	C250.568954,463.555847 249.383789,463.359955 247.373749,463.163849 
M236.949661,42.375000 
	C235.994568,37.626541 241.582138,41.445961 242.022751,38.671314 
	C240.247986,37.818554 238.545837,37.000679 236.843674,36.182812 
	C238.791412,35.153877 240.739136,34.124943 243.480728,32.676636 
	C240.263107,32.676636 237.783356,32.676636 235.001160,32.676636 
	C235.001160,36.650043 235.001160,40.694035 235.001160,44.606445 
	C237.842697,44.606445 240.427063,44.606445 243.011429,44.606445 
	C243.029160,44.239689 243.046906,43.872929 243.064651,43.506172 
	C241.230637,43.322838 239.396637,43.139503 236.949661,42.375000 
M272.437714,34.066444 
	C272.165588,33.458694 271.931580,32.348637 271.615082,32.324593 
	C269.536804,32.166706 267.440704,32.243198 265.288422,32.243198 
	C265.288422,36.873272 265.288422,40.899429 265.288422,45.224209 
	C268.195648,45.040314 270.719513,44.880665 273.490204,44.705410 
	C271.972687,41.512451 266.604553,45.535515 267.221649,40.150696 
	C269.115417,39.809490 270.783752,39.508907 272.452087,39.208321 
	C272.446045,38.907772 272.440002,38.607220 272.433960,38.306671 
	C270.746857,38.030567 269.059753,37.754467 267.294006,37.465496 
	C266.083588,32.791340 269.719543,34.564186 272.437714,34.066444 
M305.609161,44.299301 
	C306.130829,44.356071 307.027344,44.613483 307.119934,44.440563 
	C310.207642,38.672592 312.909149,43.250458 316.308014,44.467232 
	C314.625458,40.458775 312.942902,36.450321 310.811432,31.372347 
	C308.764648,36.343262 307.267303,39.979797 305.609161,44.299301 
M212.054657,41.457920 
	C210.775345,38.463608 209.496017,35.469292 207.781448,31.456266 
	C205.676163,36.583939 204.037125,40.576019 202.398102,44.568096 
	C206.237015,40.133888 209.416351,41.356735 213.012466,44.783375 
	C212.783920,43.916748 212.555389,43.050121 212.054657,41.457920 
M286.589691,476.058777 
	C290.506256,476.093872 292.069183,473.426697 291.680634,470.290039 
	C291.430145,468.268066 289.664856,465.958954 287.905701,464.797272 
	C287.014832,464.208954 283.940887,465.389496 283.064880,466.627319 
	C281.084656,469.425598 281.484955,472.558899 284.078888,475.092010 
	C284.522247,475.524994 285.220062,475.697418 286.589691,476.058777 
M187.120209,468.263458 
	C186.651245,467.659515 186.182297,467.055573 185.713318,466.451660 
	C187.321655,465.851044 188.929977,465.250427 190.538315,464.649841 
	C188.439499,463.834869 185.542175,463.327240 184.586655,464.458954 
	C179.918732,469.987915 189.158524,469.315552 188.872208,473.855377 
	C186.945709,473.961365 185.044846,474.065918 182.380432,474.212494 
	C185.707397,476.755676 188.570648,477.272217 190.551193,474.290588 
	C192.319290,471.628845 190.549118,469.657532 187.120209,468.263458 
M302.400482,470.368286 
	C301.065430,472.117462 299.730408,473.866669 298.338013,475.691010 
	C300.918030,475.691010 303.089691,475.691010 306.634277,475.691010 
	C304.522369,474.455231 303.616241,473.924988 303.963593,474.128235 
	C303.963593,470.720581 303.963593,468.055328 303.963593,465.390106 
	C302.159241,465.405273 300.062561,464.877533 298.657501,465.634186 
	C297.779999,466.106750 297.945770,468.516479 297.643372,470.056946 
	C298.011749,470.077271 298.380096,470.097595 298.748474,470.117920 
	C299.504272,468.874115 300.260071,467.630280 301.015900,466.386475 
	C301.606812,467.479370 302.197723,468.572235 302.400482,470.368286 
M228.771408,475.025085 
	C231.251785,476.531128 233.582123,476.650024 235.795303,474.564606 
	C232.335648,474.254425 228.440582,474.731110 228.285889,469.938721 
	C228.120178,464.804993 232.434998,465.263916 236.721405,465.175537 
	C233.062057,462.234833 230.285187,462.839081 228.047470,465.190735 
	C225.227768,468.153931 225.447784,471.445282 228.771408,475.025085 
M186.094879,38.591755 
	C187.615097,45.020119 191.220245,46.851017 196.151428,43.240963 
	C192.605042,42.965412 188.200684,43.883770 188.288071,38.765152 
	C188.368561,34.051540 192.085312,33.890598 196.325104,34.573719 
	C191.617661,30.713327 188.643372,31.898720 186.094879,38.591755 
M274.077271,472.271973 
	C274.645386,471.264923 275.724213,470.225281 275.662537,469.258453 
	C275.569000,467.792786 275.034454,465.569397 274.046722,465.139404 
	C272.720428,464.562042 270.416138,464.892578 269.231018,465.773834 
	C268.359467,466.421936 268.609497,468.578339 268.359711,470.062622 
	C270.111786,468.900299 270.759460,467.592804 271.592407,466.416473 
	C271.669647,466.307404 273.568298,467.167511 273.530334,467.347870 
	C273.207794,468.879181 272.827789,470.465424 272.077637,471.820831 
	C271.321503,473.187134 270.122437,474.308319 268.940613,475.752991 
	C271.612335,475.752991 273.802917,475.752991 276.418610,475.752991 
	C275.263092,474.520660 274.480072,473.685547 274.077271,472.271973 
M254.870392,42.934372 
	C255.510605,39.502296 252.839844,35.128834 259.396179,32.622513 
	C255.116531,32.622513 252.516357,32.622513 250.705185,32.622513 
	C251.484055,35.034081 252.319229,37.042171 252.747467,39.133583 
	C253.074478,40.730656 252.886185,42.433239 252.927109,44.088890 
	C253.556824,43.987686 254.186554,43.886482 254.870392,42.934372 
M225.907059,39.781487 
	C224.785751,38.851784 223.664444,37.922081 221.973389,36.519997 
	C220.702499,32.085346 226.218597,35.466793 227.625610,32.765198 
	C224.900513,32.765198 222.534958,32.765198 220.430420,32.765198 
	C220.430420,36.979588 220.430420,40.900188 220.430420,45.244999 
	C223.061035,43.796883 220.309219,38.644142 225.907059,39.781487 
M315.852020,474.378845 
	C316.553680,474.439880 317.255341,474.500916 317.957001,474.561951 
	C317.957001,471.570557 317.957001,468.579193 317.957001,465.587799 
	C317.580963,465.495148 317.204956,465.402496 316.828918,465.309845 
	C314.935120,467.701477 313.041351,470.093109 310.841156,472.871674 
	C312.715851,473.188080 314.125610,473.425995 315.852020,474.378845 
M200.008133,463.968903 
	C197.678223,465.698639 197.450134,472.286591 200.295349,476.940918 
	C200.295349,472.121368 200.295349,468.405182 200.008133,463.968903 
M296.670868,37.729015 
	C296.795135,40.116325 296.919373,42.503632 297.043610,44.890938 
	C297.397858,44.858536 297.752075,44.826134 298.106323,44.793732 
	C298.106323,40.754234 298.106323,36.714733 298.106323,32.675236 
	C297.740112,32.656937 297.373901,32.638641 297.007690,32.620342 
	C296.895477,34.044022 296.783264,35.467701 296.670868,37.729015 
z"/>
<path fill="#FCFDFC" opacity="1.000000" stroke="none" 
	d="
M317.056030,174.830109 
	C315.261475,175.586761 313.526886,176.090607 311.789673,176.099808 
	C299.004059,176.167526 286.217957,176.136414 273.178925,176.136414 
	C273.178925,183.549698 273.178925,190.482864 273.178925,198.059753 
	C285.157593,198.059753 297.195160,198.059753 309.520996,198.059753 
	C309.520996,203.265289 309.520996,207.836044 309.520996,212.816010 
	C297.500732,212.816010 285.576202,212.816010 273.287842,212.816010 
	C273.287842,220.266205 273.287842,227.327499 273.287842,234.873978 
	C287.557800,234.873978 301.961670,234.873978 316.748291,234.873978 
	C316.748291,240.050049 316.748291,244.755539 316.748291,249.737259 
	C297.357635,249.737259 277.951477,249.737259 258.268890,249.737259 
	C258.268890,220.408127 258.268890,191.156281 258.268890,161.552612 
	C277.647675,161.552612 297.040588,161.552612 317.114746,161.552612 
	C317.114746,165.822449 317.114746,170.085358 317.056030,174.830109 
z"/>
<path fill="#FBFCFB" opacity="1.000000" stroke="none" 
	d="
M197.344574,140.691391 
	C174.952652,122.740013 176.089981,83.281555 199.240158,67.067459 
	C216.777573,54.784466 242.508789,56.843479 256.162811,71.689148 
	C252.884079,75.091484 249.609161,78.489845 246.290833,81.933266 
	C229.531815,71.010216 213.402679,71.575211 203.456268,83.599121 
	C193.511078,95.621552 194.035629,115.748413 204.651306,126.794975 
	C213.532394,136.036591 231.344788,140.072388 246.412811,127.090935 
	C249.695389,130.486664 252.993149,133.898102 256.308960,137.328186 
	C244.711151,151.739990 216.295212,155.721481 197.344574,140.691391 
z"/>
<path fill="#FAFBFA" opacity="1.000000" stroke="none" 
	d="
M241.173645,207.941376 
	C241.173599,209.739227 241.173599,211.054077 241.173599,212.923996 
	C228.867722,212.923996 216.798981,212.923996 204.392670,212.923996 
	C204.392670,225.422821 204.392670,237.371765 204.392670,249.664597 
	C199.349274,249.664597 194.647720,249.664597 189.657776,249.664597 
	C189.657776,220.383423 189.657776,191.150604 189.657776,161.554688 
	C209.211899,161.554688 228.598038,161.554688 248.397079,161.554688 
	C248.397079,166.187378 248.397079,170.886108 248.397079,176.075607 
	C233.903656,176.075607 219.489822,176.075607 204.712112,176.075607 
	C204.712112,183.586777 204.712112,190.621643 204.712112,198.154724 
	C216.744370,198.154724 228.662216,198.154724 241.173691,198.154724 
	C241.173691,201.570999 241.173691,204.514679 241.173645,207.941376 
z"/>
<path fill="#FCFCFC" opacity="1.000000" stroke="none" 
	d="
M307.433380,96.488785 
	C314.253143,113.993980 320.899170,131.153214 327.814545,149.007935 
	C324.806366,149.007935 322.502441,148.728836 320.290558,149.061523 
	C314.242584,149.971207 310.115723,148.480469 308.822540,141.742111 
	C308.595062,140.556641 306.104340,139.042969 304.612610,138.990387 
	C296.796600,138.714874 288.956696,139.080688 281.144043,138.761063 
	C277.625275,138.617096 275.759186,139.785110 275.203735,143.074875 
	C274.351135,148.124985 271.520264,149.852325 266.508026,149.088898 
	C263.587708,148.644104 260.544250,149.007935 256.943542,149.007935 
	C268.728119,118.603149 280.346375,88.627510 292.346497,57.666618 
	C297.581970,71.174248 302.420807,83.658531 307.433380,96.488785 
M299.942871,125.967278 
	C300.832214,125.896637 301.721558,125.825996 302.983307,125.725784 
	C299.451904,115.653557 296.094269,106.076881 292.340210,95.369629 
	C288.579407,106.118118 285.209320,115.749939 281.634155,125.967949 
	C287.854614,125.967949 293.451355,125.967949 299.942871,125.967278 
z"/>
<path fill="#FCFCFC" opacity="1.000000" stroke="none" 
	d="
M246.530334,408.338562 
	C241.197418,393.692902 244.096573,380.194763 254.301086,370.939697 
	C264.666290,361.538879 278.761230,359.376648 290.938477,365.319336 
	C304.017273,371.701996 311.278748,385.517029 309.148895,399.964844 
	C307.060699,414.129761 295.965454,425.222870 281.451477,427.656921 
	C267.473389,430.001160 253.683929,422.463226 246.530334,408.338562 
M286.507629,410.223236 
	C294.540283,404.025543 296.974396,395.149719 292.898010,386.920868 
	C289.071838,379.197083 280.166260,375.215485 271.900024,377.532776 
	C261.573700,380.427612 256.024231,391.090057 259.611633,401.142944 
	C263.421112,411.818146 274.671326,415.891174 286.507629,410.223236 
z"/>
<path fill="#FAFBF9" opacity="1.000000" stroke="none" 
	d="
M272.471893,320.998688 
	C272.471924,305.864746 272.471924,291.230377 272.471924,276.155914 
	C269.240814,276.155914 266.310944,276.155914 263.030823,276.155914 
	C263.030823,271.335632 263.030823,266.954773 263.030823,262.380676 
	C274.366241,262.380676 285.481964,262.380676 296.930389,262.380676 
	C296.930389,266.859009 296.930389,271.258148 296.930389,276.057465 
	C293.813721,276.057465 290.868530,276.057465 287.683960,276.057465 
	C287.683960,296.516846 287.683960,316.579346 287.683960,337.158661 
	C290.941132,337.158661 294.024475,337.158661 297.496826,337.158661 
	C297.496826,341.877716 297.496826,346.092896 297.496826,350.664734 
	C285.906921,350.664734 274.214966,350.664734 262.296143,350.664734 
	C262.296143,346.399811 262.296143,342.290405 262.296143,337.491333 
	C265.491241,337.491333 268.694214,337.491333 272.471863,337.491333 
	C272.471863,331.714020 272.471863,326.606140 272.471893,320.998688 
z"/>
<path fill="#FBFCFB" opacity="1.000000" stroke="none" 
	d="
M210.617706,350.834045 
	C210.043549,349.054932 209.780945,347.411194 209.779327,345.767151 
	C209.753555,319.627014 209.761200,293.486847 209.761215,267.346680 
	C209.761215,265.863617 209.761230,264.380524 209.761230,262.552979 
	C214.776520,262.552979 219.458191,262.552979 224.596222,262.552979 
	C224.596222,286.988861 224.596222,311.225952 224.596222,335.919006 
	C235.621948,335.919006 246.211029,335.919006 257.097900,335.919006 
	C257.097900,341.129120 257.097900,345.882660 257.097900,350.969238 
	C241.632217,350.969238 226.341446,350.969238 210.617706,350.834045 
z"/>
<path fill="#FAFBFA" opacity="1.000000" stroke="none" 
	d="
M220.741867,418.000183 
	C220.741867,429.457184 220.741867,440.414154 220.741867,451.689514 
	C215.784134,451.689514 211.207413,451.689514 206.140289,451.689514 
	C206.140289,427.101776 206.140289,402.397949 206.140289,377.223572 
	C199.764557,377.223572 193.854980,377.223572 187.546478,377.223572 
	C187.546478,372.532043 187.546478,368.295990 187.546478,363.622101 
	C204.429108,363.622101 221.475922,363.622101 238.867035,363.622101 
	C238.867035,367.844482 238.867035,372.244568 238.867035,376.968811 
	C232.989563,376.968811 227.199509,376.968811 220.741867,376.968811 
	C220.741867,390.685638 220.741867,404.092896 220.741867,418.000183 
z"/>
<path fill="#FAFBFA" opacity="1.000000" stroke="none" 
	d="
M304.403381,437.324097 
	C305.214691,442.125977 305.586243,446.816376 305.979309,451.778961 
	C285.920654,451.778961 266.706818,451.778961 247.241333,451.778961 
	C247.241333,447.031158 247.241333,442.444336 247.241333,437.212616 
	C266.169067,437.212616 285.066345,437.212616 304.403381,437.324097 
z"/>
<path fill="#DAE1D7" opacity="1.000000" stroke="none" 
	d="
M283.794617,32.216187 
	C288.017151,33.005051 289.602600,34.766762 288.043854,38.943340 
	C287.450531,40.533054 288.481384,42.728935 288.207672,45.534195 
	C287.146240,43.677582 286.084808,41.820969 285.023407,39.964355 
	C284.561554,40.232910 284.099731,40.501465 283.637878,40.770023 
	C283.129913,42.138569 282.621948,43.507114 282.113983,44.875664 
	C281.776886,44.874222 281.439789,44.872780 281.102692,44.871338 
	C281.102692,40.853088 281.064362,36.833538 281.201050,32.819942 
	C281.208984,32.587353 282.637573,32.403141 283.794617,32.216187 
z"/>
<path fill="#D6DED4" opacity="1.000000" stroke="none" 
	d="
M247.786194,463.163940 
	C249.383789,463.359955 250.568954,463.555847 252.486862,463.872864 
	C249.613358,465.144928 247.600815,466.035858 245.588272,466.926819 
	C247.244339,467.841370 248.900391,468.755951 250.705444,469.752808 
	C250.714096,469.668701 250.771149,470.176514 250.639679,470.231232 
	C248.959885,470.930145 247.253082,471.564148 245.553162,472.214661 
	C247.610031,473.202667 249.666901,474.190674 252.654480,475.625732 
	C249.172836,475.625732 246.554840,475.625732 243.258362,475.625732 
	C243.258362,472.843414 243.422638,469.890472 243.214294,466.964020 
	C242.984741,463.739594 244.505600,462.807709 247.786194,463.163940 
z"/>
<path fill="#E0E6DE" opacity="1.000000" stroke="none" 
	d="
M237.256149,42.665588 
	C239.396637,43.139503 241.230637,43.322838 243.064651,43.506172 
	C243.046906,43.872929 243.029160,44.239689 243.011429,44.606445 
	C240.427063,44.606445 237.842697,44.606445 235.001160,44.606445 
	C235.001160,40.694035 235.001160,36.650043 235.001160,32.676636 
	C237.783356,32.676636 240.263107,32.676636 243.480728,32.676636 
	C240.739136,34.124943 238.791412,35.153877 236.843674,36.182808 
	C238.545837,37.000679 240.247986,37.818554 242.022751,38.671314 
	C241.582138,41.445961 235.994568,37.626541 237.256149,42.665588 
z"/>
<path fill="#E0E6DE" opacity="1.000000" stroke="none" 
	d="
M272.055603,34.106098 
	C269.719543,34.564186 266.083588,32.791340 267.294006,37.465496 
	C269.059753,37.754467 270.746857,38.030567 272.433960,38.306671 
	C272.440002,38.607220 272.446045,38.907772 272.452087,39.208321 
	C270.783752,39.508907 269.115417,39.809490 267.221649,40.150696 
	C266.604553,45.535515 271.972687,41.512451 273.490204,44.705410 
	C270.719513,44.880665 268.195648,45.040314 265.288422,45.224209 
	C265.288422,40.899429 265.288422,36.873272 265.288422,32.243198 
	C267.440704,32.243198 269.536804,32.166706 271.615082,32.324593 
	C271.931580,32.348637 272.165588,33.458694 272.055603,34.106098 
z"/>
<path fill="#DAE1D7" opacity="1.000000" stroke="none" 
	d="
M305.689575,43.957817 
	C307.267303,39.979797 308.764648,36.343262 310.811432,31.372347 
	C312.942902,36.450321 314.625458,40.458775 316.308014,44.467232 
	C312.909149,43.250458 310.207642,38.672592 307.119934,44.440563 
	C307.027344,44.613483 306.130829,44.356071 305.689575,43.957817 
z"/>
<path fill="#DAE1D7" opacity="1.000000" stroke="none" 
	d="
M212.190765,41.820705 
	C212.555389,43.050121 212.783920,43.916748 213.012466,44.783375 
	C209.416351,41.356735 206.237015,40.133888 202.398102,44.568096 
	C204.037125,40.576019 205.676163,36.583939 207.781448,31.456266 
	C209.496017,35.469292 210.775345,38.463608 212.190765,41.820705 
z"/>
<path fill="#E0E6DE" opacity="1.000000" stroke="none" 
	d="
M286.195007,476.024475 
	C285.220062,475.697418 284.522247,475.524994 284.078888,475.092010 
	C281.484955,472.558899 281.084656,469.425598 283.064880,466.627319 
	C283.940887,465.389496 287.014832,464.208954 287.905701,464.797272 
	C289.664856,465.958954 291.430145,468.268066 291.680634,470.290039 
	C292.069183,473.426697 290.506256,476.093872 286.195007,476.024475 
M285.877258,466.543945 
	C285.353088,467.166626 284.333527,467.844543 284.395660,468.401917 
	C284.599609,470.231628 285.095428,472.057617 285.775116,473.767365 
	C285.856079,473.971069 288.588409,473.636566 288.680389,473.231201 
	C289.088654,471.432678 289.173492,469.493530 288.945068,467.658813 
	C288.876831,467.110748 287.411133,466.736664 285.877258,466.543945 
z"/>
<path fill="#DAE1D7" opacity="1.000000" stroke="none" 
	d="
M187.457184,468.462555 
	C190.549118,469.657532 192.319290,471.628845 190.551193,474.290588 
	C188.570648,477.272217 185.707397,476.755676 182.380432,474.212494 
	C185.044846,474.065918 186.945709,473.961365 188.872208,473.855377 
	C189.158524,469.315552 179.918732,469.987915 184.586655,464.458954 
	C185.542175,463.327240 188.439499,463.834869 190.538315,464.649841 
	C188.929977,465.250427 187.321655,465.851044 185.713318,466.451660 
	C186.182297,467.055573 186.651245,467.659515 187.457184,468.462555 
z"/>
<path fill="#E0E6DE" opacity="1.000000" stroke="none" 
	d="
M302.594574,470.016724 
	C302.197723,468.572235 301.606812,467.479370 301.015900,466.386475 
	C300.260071,467.630280 299.504272,468.874115 298.748474,470.117920 
	C298.380096,470.097595 298.011749,470.077271 297.643372,470.056946 
	C297.945770,468.516479 297.779999,466.106750 298.657501,465.634186 
	C300.062561,464.877533 302.159241,465.405273 303.963593,465.390106 
	C303.963593,468.055328 303.963593,470.720581 303.963593,474.128235 
	C303.616241,473.924988 304.522369,474.455231 306.634277,475.691010 
	C303.089691,475.691010 300.918030,475.691010 298.338013,475.691010 
	C299.730408,473.866669 301.065430,472.117462 302.594574,470.016724 
z"/>
<path fill="#E0E6DE" opacity="1.000000" stroke="none" 
	d="
M228.453735,474.781586 
	C225.447784,471.445282 225.227768,468.153931 228.047470,465.190735 
	C230.285187,462.839081 233.062057,462.234833 236.721405,465.175537 
	C232.434998,465.263916 228.120178,464.804993 228.285889,469.938721 
	C228.440582,474.731110 232.335648,474.254425 235.795303,474.564606 
	C233.582123,476.650024 231.251785,476.531128 228.453735,474.781586 
z"/>
<path fill="#E0E6DE" opacity="1.000000" stroke="none" 
	d="
M186.127869,38.204544 
	C188.643372,31.898720 191.617661,30.713327 196.325104,34.573719 
	C192.085312,33.890598 188.368561,34.051540 188.288071,38.765152 
	C188.200684,43.883770 192.605042,42.965412 196.151428,43.240963 
	C191.220245,46.851017 187.615097,45.020119 186.127869,38.204544 
z"/>
<path fill="#E0E6DE" opacity="1.000000" stroke="none" 
	d="
M273.887146,472.561218 
	C274.480072,473.685547 275.263092,474.520660 276.418610,475.752991 
	C273.802917,475.752991 271.612335,475.752991 268.940613,475.752991 
	C270.122437,474.308319 271.321503,473.187134 272.077637,471.820831 
	C272.827789,470.465424 273.207794,468.879181 273.530334,467.347870 
	C273.568298,467.167511 271.669647,466.307404 271.592407,466.416473 
	C270.759460,467.592804 270.111786,468.900299 268.359711,470.062622 
	C268.609497,468.578339 268.359467,466.421936 269.231018,465.773834 
	C270.416138,464.892578 272.720428,464.562042 274.046722,465.139404 
	C275.034454,465.569397 275.569000,467.792786 275.662537,469.258453 
	C275.724213,470.225281 274.645386,471.264923 273.887146,472.561218 
z"/>
<path fill="#DAE1D7" opacity="1.000000" stroke="none" 
	d="
M254.843323,43.359825 
	C254.186554,43.886482 253.556824,43.987686 252.927109,44.088890 
	C252.886185,42.433239 253.074478,40.730656 252.747467,39.133583 
	C252.319229,37.042171 251.484055,35.034081 250.705185,32.622513 
	C252.516357,32.622513 255.116531,32.622513 259.396179,32.622513 
	C252.839844,35.128834 255.510605,39.502296 254.843323,43.359825 
z"/>
<path fill="#BDCAB9" opacity="1.000000" stroke="none" 
	d="
M211.101654,465.832855 
	C212.787628,467.360626 214.473602,468.888367 216.626175,470.838928 
	C216.980194,468.396515 217.278580,466.338013 217.576950,464.279510 
	C218.090515,464.276001 218.604065,464.272522 219.117615,464.269043 
	C219.266769,467.442566 219.415924,470.616089 219.639999,475.383606 
	C216.229752,472.690308 213.739365,470.723450 211.180573,468.073700 
	C211.108658,466.871460 211.105148,466.352173 211.101654,465.832855 
z"/>
<path fill="#E0E6DE" opacity="1.000000" stroke="none" 
	d="
M225.497589,39.843971 
	C220.309219,38.644142 223.061035,43.796883 220.430420,45.244999 
	C220.430420,40.900188 220.430420,36.979588 220.430420,32.765198 
	C222.534958,32.765198 224.900513,32.765198 227.625610,32.765198 
	C226.218597,35.466793 220.702499,32.085346 221.973389,36.519997 
	C223.664444,37.922081 224.785751,38.851784 225.497589,39.843971 
z"/>
<path fill="#E0E6DE" opacity="1.000000" stroke="none" 
	d="
M315.693665,474.021362 
	C314.125610,473.425995 312.715851,473.188080 310.841156,472.871674 
	C313.041351,470.093109 314.935120,467.701477 316.828918,465.309845 
	C317.204956,465.402496 317.580963,465.495148 317.957001,465.587799 
	C317.957001,468.579193 317.957001,471.570557 317.957001,474.561951 
	C317.255341,474.500916 316.553680,474.439880 315.693665,474.021362 
z"/>
<path fill="#D6DED4" opacity="1.000000" stroke="none" 
	d="
M200.151733,464.328979 
	C200.295349,468.405182 200.295349,472.121368 200.295349,476.940918 
	C197.450134,472.286591 197.678223,465.698639 200.151733,464.328979 
z"/>
<path fill="#D6DED4" opacity="1.000000" stroke="none" 
	d="
M296.670959,37.310196 
	C296.783264,35.467701 296.895477,34.044022 297.007690,32.620342 
	C297.373901,32.638641 297.740112,32.656937 298.106323,32.675236 
	C298.106323,36.714733 298.106323,40.754234 298.106323,44.793732 
	C297.752075,44.826134 297.397858,44.858536 297.043610,44.890938 
	C296.919373,42.503632 296.795135,40.116325 296.670959,37.310196 
z"/>
<path fill="#E0E6DE" opacity="1.000000" stroke="none" 
	d="
M210.887268,465.520630 
	C211.105148,466.352173 211.108658,466.871460 211.038727,467.773834 
	C210.480240,470.733673 209.995178,473.310455 209.510101,475.887238 
	C209.259415,475.907623 209.008743,475.928040 208.758057,475.948456 
	C208.758057,472.023804 208.758057,468.099182 208.758057,463.832214 
	C209.452332,464.331207 210.062622,464.769836 210.887268,465.520630 
z"/>
<path fill="#4B6F40" opacity="1.000000" stroke="none" 
	d="
M299.495483,125.967613 
	C293.451355,125.967949 287.854614,125.967949 281.634155,125.967949 
	C285.209320,115.749939 288.579407,106.118118 292.340210,95.369629 
	C296.094269,106.076881 299.451904,115.653557 302.983307,125.725784 
	C301.721558,125.825996 300.832214,125.896637 299.495483,125.967613 
z"/>
<path fill="#486D3D" opacity="1.000000" stroke="none" 
	d="
M286.197144,410.439392 
	C274.671326,415.891174 263.421112,411.818146 259.611633,401.142944 
	C256.024231,391.090057 261.573700,380.427612 271.900024,377.532776 
	C280.166260,375.215485 289.071838,379.197083 292.898010,386.920868 
	C296.974396,395.149719 294.540283,404.025543 286.197144,410.439392 
z"/>
<path fill="#4B6F40" opacity="1.000000" stroke="none" 
	d="
M286.231506,466.413422 
	C287.411133,466.736664 288.876831,467.110748 288.945068,467.658813 
	C289.173492,469.493530 289.088654,471.432678 288.680389,473.231201 
	C288.588409,473.636566 285.856079,473.971069 285.775116,473.767365 
	C285.095428,472.057617 284.599609,470.231628 284.395660,468.401917 
	C284.333527,467.844543 285.353088,467.166626 286.231506,466.413422 
z"/>
</svg>