<svg version="1.1" id="Layer_1" xmlns="http://www.w3.org/2000/svg" xmlns:xlink="http://www.w3.org/1999/xlink" x="0px" y="0px"
	 width="100%" viewBox="0 0 512 512" enable-background="new 0 0 512 512" xml:space="preserve">
<path fill="#000000" opacity="1.000000" stroke="none" 
	d="
M272.000000,513.000000 
	C181.355331,513.000000 91.210663,513.000000 1.032996,513.000000 
	C1.032996,342.396973 1.032996,171.793930 1.032996,1.095450 
	C171.561356,1.095450 342.122772,1.095450 512.842102,1.095450 
	C512.842102,171.666550 512.842102,342.333252 512.842102,513.000000 
	C432.793915,513.000000 352.646942,513.000000 272.000000,513.000000 
M344.979797,284.247406 
	C345.664093,283.175415 346.429657,282.146271 347.020660,281.025116 
	C358.713654,258.842255 365.648987,235.198578 366.788574,210.200790 
	C367.332947,198.259811 366.680817,186.042801 364.716217,174.259995 
	C361.644226,155.835724 355.866974,138.128876 346.400787,121.735756 
	C337.143097,105.703629 326.339355,91.118729 312.410736,78.719353 
	C298.567230,66.395691 283.380737,56.408371 266.418121,49.114319 
	C249.505554,41.841785 231.754868,37.350651 213.447556,36.186909 
	C199.190384,35.280624 184.928909,36.159748 170.681061,38.794857 
	C147.931732,43.002296 127.260513,51.739872 108.130623,64.413795 
	C95.345451,72.884224 84.318108,83.309433 74.374130,95.017365 
	C63.170677,108.208183 54.455082,122.798187 48.000591,138.783569 
	C42.172722,153.217056 38.301331,168.067688 36.830688,183.685318 
	C35.151020,201.522720 35.555332,219.175232 39.358509,236.615845 
	C44.393341,259.704590 53.916439,280.857910 67.969498,299.980438 
	C76.799187,311.995361 86.938736,322.814789 98.656479,331.832428 
	C115.612984,344.881592 134.301483,355.212708 155.200989,360.438660 
	C167.399353,363.488861 179.948517,365.857574 192.463531,366.703705 
	C203.535370,367.452240 214.805069,365.957916 225.939255,364.931488 
	C240.517944,363.587524 254.315353,359.166138 267.589661,353.072876 
	C273.392151,350.409363 279.187653,347.730682 285.185974,345.697418 
	C325.460236,385.970459 365.734253,426.243713 406.009796,466.515472 
	C407.067963,467.573578 408.003235,468.826355 409.229279,469.634003 
	C427.352783,481.572266 453.702454,479.880432 468.547760,461.188873 
	C480.487183,446.156067 480.038422,419.318298 465.743378,405.135498 
	C426.610199,366.309662 387.733459,327.225372 348.743408,288.255188 
	C347.585297,287.097656 346.295807,286.071594 344.979797,284.247406 
z"/>
<path fill="#DCDFE0" opacity="1.000000" stroke="none" 
	d="
M284.986328,345.058899 
	C279.187653,347.730682 273.392151,350.409363 267.589661,353.072876 
	C254.315353,359.166138 240.517944,363.587524 225.939255,364.931488 
	C214.805069,365.957916 203.535370,367.452240 192.463531,366.703705 
	C179.948517,365.857574 167.399353,363.488861 155.200989,360.438660 
	C134.301483,355.212708 115.612984,344.881592 98.656479,331.832428 
	C86.938736,322.814789 76.799187,311.995361 67.969498,299.980438 
	C53.916439,280.857910 44.393341,259.704590 39.358509,236.615845 
	C35.555332,219.175232 35.151020,201.522720 36.830688,183.685318 
	C38.301331,168.067688 42.172722,153.217056 48.000591,138.783569 
	C54.455082,122.798187 63.170677,108.208183 74.374130,95.017365 
	C84.318108,83.309433 95.345451,72.884224 108.130623,64.413795 
	C127.260513,51.739872 147.931732,43.002296 170.681061,38.794857 
	C184.928909,36.159748 199.190384,35.280624 213.447556,36.186909 
	C231.754868,37.350651 249.505554,41.841785 266.418121,49.114319 
	C283.380737,56.408371 298.567230,66.395691 312.410736,78.719353 
	C326.339355,91.118729 337.143097,105.703629 346.400787,121.735756 
	C355.866974,138.128876 361.644226,155.835724 364.716217,174.259995 
	C366.680817,186.042801 367.332947,198.259811 366.788574,210.200790 
	C365.648987,235.198578 358.713654,258.842255 347.020660,281.025116 
	C346.429657,282.146271 345.664093,283.175415 344.679901,284.670959 
	C343.887878,285.511230 343.242950,285.835205 342.925598,286.358002 
	C328.826996,309.584473 310.198700,328.288239 287.060028,342.528809 
	C286.182251,343.069092 285.669281,344.202118 284.986328,345.058899 
M112.007019,269.453583 
	C118.911011,276.393036 125.263687,284.011902 132.821915,290.145111 
	C155.889008,308.863159 182.962616,316.506531 212.111374,313.650848 
	C242.287109,310.694580 267.882996,297.452728 287.801422,273.845398 
	C308.386261,249.448257 316.770996,221.194366 313.704895,189.937302 
	C311.128296,163.670731 299.963013,140.971634 280.876068,122.219299 
	C251.023819,92.890312 215.151703,83.669533 175.319092,92.743576 
	C136.606735,101.562424 110.305145,126.318466 96.110809,163.428131 
	C90.477882,178.154846 87.688263,193.635742 89.217514,209.406082 
	C91.324394,231.133377 98.559509,251.152481 112.007019,269.453583 
z"/>
<path fill="#C2C2C3" opacity="1.000000" stroke="none" 
	d="
M285.086121,345.378174 
	C285.669281,344.202118 286.182251,343.069092 287.060028,342.528809 
	C310.198700,328.288239 328.826996,309.584473 342.925598,286.358002 
	C343.242950,285.835205 343.887878,285.511230 344.723785,285.039368 
	C346.295807,286.071594 347.585297,287.097656 348.743408,288.255188 
	C387.733459,327.225372 426.610199,366.309662 465.743378,405.135498 
	C480.038422,419.318298 480.487183,446.156067 468.547760,461.188873 
	C453.702454,479.880432 427.352783,481.572266 409.229279,469.634003 
	C408.003235,468.826355 407.067963,467.573578 406.009796,466.515472 
	C365.734253,426.243713 325.460236,385.970459 285.086121,345.378174 
z"/>
<path fill="#FCFDFF" opacity="1.000000" stroke="none" 
	d="
M111.784332,269.174774 
	C98.559509,251.152481 91.324394,231.133377 89.217514,209.406082 
	C87.688263,193.635742 90.477882,178.154846 96.110809,163.428131 
	C110.305145,126.318466 136.606735,101.562424 175.319092,92.743576 
	C215.151703,83.669533 251.023819,92.890312 280.876068,122.219299 
	C299.963013,140.971634 311.128296,163.670731 313.704895,189.937302 
	C316.770996,221.194366 308.386261,249.448257 287.801422,273.845398 
	C267.882996,297.452728 242.287109,310.694580 212.111374,313.650848 
	C182.962616,316.506531 155.889008,308.863159 132.821915,290.145111 
	C125.263687,284.011902 118.911011,276.393036 111.784332,269.174774 
z"/>
</svg>